<?xml version="1.0" encoding="UTF-8"?>
<svg width="931px" height="909px" viewBox="0 0 931 909" version="1.1" xmlns="http://www.w3.org/2000/svg" xmlns:xlink="http://www.w3.org/1999/xlink">
    <!-- Generator: Sketch 60.1 (88133) - https://sketch.com -->
    <title>Star</title>
    <desc>Created with Sketch.</desc>
    <g id="Page-1" stroke="none" stroke-width="1" fill="none" fill-rule="evenodd">
        <g id="Desktop-HD" transform="translate(-254.000000, -58.000000)" fill="#FFF8A6">
            <polygon id="Star" points="719.5 870.57609 615.916505 966.328943 564.136607 835.11541 429.265497 876.442555 439.544839 735.756791 300.098992 714.472881 370.401625 592.179426 254 512.5 370.401625 432.820574 300.098992 310.527119 439.544839 289.243209 429.265497 148.557445 564.136607 189.88459 615.916505 58.6710569 719.5 154.42391 823.083495 58.6710569 874.863393 189.88459 1009.7345 148.557445 999.455161 289.243209 1138.90101 310.527119 1068.59838 432.820574 1185 512.5 1068.59838 592.179426 1138.90101 714.472881 999.455161 735.756791 1009.7345 876.442555 874.863393 835.11541 823.083495 966.328943"></polygon>
        </g>
    </g>
</svg>